<svg xmlns="http://www.w3.org/2000/svg" enable-background="new 0 0 1920 1080" viewBox="0 0 1920 1080" id="contact-us"><path fill="#cce9ff" d="M286.4 195.5V1079h1498.5V195.5H286.4zm1381.7 707.1h-806V571.7h806v330.9zm0-404.3h-806v-65.7h806v65.7zm0-139.1h-806v-65.7h806v65.7z"></path><path fill="#0b4870" d="M286.4 72.3h1498.5v123.2H286.4z"></path><path fill="#ffbe55" d="M1402.8 946.6h265.3v65.7h-265.3z"></path><path fill="#0e538c" d="M710.7 206.1c4.5 20.7 9.9 53.1 9.4 93-.6 48.2-9.2 60.3-5.8 89.1 5.5 47.2 34.8 67.4 72.1 116.9 23.2 30.8 74.9 99.3 82.2 160.9 11.2 94.8-79.4 206.5-187 248.6-143.9 56.2-309.8-16.4-373.2-128.6-4.6-8.1-57.9-105.6-20.5-193.3 7.6-17.7 28.1-65.6 71.2-79.8 20.1-6.6 29.4 0 40.2-8.8 26.3-21.6-1.7-73.6 2.2-144.1 5.1-90.6 62.7-174.6 118.3-192.8 16.9-5.6 37.4-12.3 61.4-6.5 18.1 4.4 25.1 12.8 45.5 13.6 19.7.8 24.7-6.6 38.9-4.9 11.2 1.4 27.4 8.5 45.1 36.7z"></path><path fill="#ffbe55" d="M618.8 457.1s140 20.7 147.4 70.2c4.2 28.3-9.2 191.6-35 250.6s7.4 269 27.6 304H401.4s99.5-221.1 82.9-300.3c-16.6-79.2-68.2-226.6 7.4-278.2s127.1-46.3 127.1-46.3z"></path><path fill="#fcd2b1" d="m548.8 394.9 2.3 73.4c.8 24.8 21.1 44.6 46 44.6 25.6 0 46.3-21 46-46.6l-1.2-87-93.1 15.6z"></path><path fill="#ffe3ca" d="M515.6 256.7S471.3 428.5 580.1 429c46.1.2 71.9-20.3 74.6-48.8 0 0 41.5-12.9 35.9-51.6s-25.8-10.1-24.9-.9-12 13.8-11.1 3.7 5-106.9-61.5-110.6c.1 0-44.3 54.3-77.5 35.9z"></path><path fill="#ffbe55" d="M725.6 486s77.1 39.8 162.2 233.8c72.5 165.4-125.6 362.1-125.6 362.1h-67.7s116.8-230.2 122.3-256c5.5-25.8-111.2-180.7-91.2-339.9z"></path><path fill="#ffe3ca" d="m299.5 170.4 10.5-53 48.1 8.9-15.2 59.4z"></path><path fill="#ffe3ca" d="M292.7 103.8c-2-34.3 27.9-80.6 38.4-89.5s45.3-14.6 44.7 5.6c-.6 20.2-.7 42.7-5.7 56.9-2.9 8.4-11.6 27.1-1.8 22.1s18.8-30.5 27.4-22.7c7.1 6.5-7.5 48.5-27.4 62.9-11 8-11.6 11.5-26.7 12.3-15.1.8-45.7 6.8-48.9-47.6z"></path><path fill="#ffbe55" d="M299.6 164.4S239.2 347 252.1 417s202 221.6 202 221.6l48-142.2s-118.3-40.3-153.3-78.3-.9-248-.9-248l-48.3-5.7z"></path><path fill="#0e538c" d="M-574-78.1"></path></svg>