<?xml version="1.0" standalone="no"?>
<!DOCTYPE svg PUBLIC "-//W3C//DTD SVG 20010904//EN"
 "http://www.w3.org/TR/2001/REC-SVG-20010904/DTD/svg10.dtd">
<svg version="1.0" xmlns="http://www.w3.org/2000/svg"
 width="162.000000pt" height="142.000000pt" viewBox="0 0 162.000000 142.000000"
 preserveAspectRatio="xMidYMid meet">

<g transform="translate(0.000000,142.000000) scale(0.100000,-0.100000)"
fill="#000000" stroke="none">
<path d="M710 1344 c-265 -56 -445 -209 -525 -445 -38 -114 -41 -266 -6 -379
65 -212 223 -372 441 -446 42 -15 84 -19 180 -19 138 0 208 17 325 78 80 42
202 165 243 243 40 78 42 98 2 25 -39 -70 -67 -107 -129 -166 -127 -121 -242
-164 -445 -166 -151 -1 -257 36 -381 133 -140 110 -235 311 -235 497 0 73 22
189 38 201 5 3 16 26 26 52 26 72 86 157 150 215 118 108 258 162 426 164 52
1 82 4 65 7 l-30 5 25 7 c46 14 -102 9 -170 -6z"/>
<path d="M938 1343 c6 -2 18 -2 25 0 6 3 1 5 -13 5 -14 0 -19 -2 -12 -5z"/>
<path d="M988 1333 c7 -3 16 -2 19 1 4 3 -2 6 -13 5 -11 0 -14 -3 -6 -6z"/>
<path d="M690 996 c0 -21 48 -26 175 -19 87 5 115 9 115 20 0 10 -30 13 -145
13 -116 0 -145 -3 -145 -14z m53 -3 c-7 -2 -19 -2 -25 0 -7 3 -2 5 12 5 14 0
19 -2 13 -5z m50 0 c-7 -2 -19 -2 -25 0 -7 3 -2 5 12 5 14 0 19 -2 13 -5z"/>
<path d="M650 951 c0 -12 6 -21 16 -21 9 0 14 7 12 17 -5 25 -28 28 -28 4z"/>
<path d="M690 865 l0 -95 145 0 145 0 0 95 0 95 -145 0 -145 0 0 -95z m177 53
c-3 -7 -14 -37 -23 -65 -10 -29 -22 -53 -27 -53 -5 0 -6 8 -3 17 4 9 14 39 23
65 8 26 20 48 25 48 5 0 7 -6 5 -12z m-79 -42 c-17 -12 -16 -14 5 -24 21 -10
21 -11 1 -11 -11 -1 -29 5 -39 13 -18 13 -17 14 11 29 33 17 48 12 22 -7z
m134 3 c21 -11 21 -12 -3 -25 -33 -19 -60 -18 -36 0 18 14 18 15 0 25 -17 10
-17 10 0 11 10 0 28 -5 39 -11z"/>
<path d="M645 818 l0 -93 143 -3 c121 -2 142 0 142 12 0 13 -22 16 -122 18
l-123 3 -3 78 c-2 65 -6 77 -20 77 -15 0 -17 -12 -17 -92z"/>
<path d="M1442 640 c0 -19 2 -27 5 -17 2 9 2 25 0 35 -3 9 -5 1 -5 -18z"/>
<path d="M740 555 c0 -43 4 -75 10 -75 6 0 10 32 10 75 0 43 -4 75 -10 75 -6
0 -10 -32 -10 -75z"/>
<path d="M1017 624 c-4 -4 -7 -26 -8 -48 0 -33 -2 -37 -9 -20 -17 43 -84 34
-96 -12 -6 -21 -2 -31 16 -46 27 -22 40 -23 66 -3 18 14 17 15 -15 12 -20 -1
-36 3 -38 11 -3 8 8 12 35 12 34 0 41 -3 44 -22 6 -47 23 -21 26 41 3 60 -6
90 -21 75z m-37 -75 c0 -5 -11 -9 -25 -9 -26 0 -34 15 -12 23 16 5 37 -3 37
-14z"/>
<path d="M390 551 c0 -41 4 -71 10 -71 6 0 10 11 10 25 0 34 28 33 56 -2 25
-31 43 -26 23 5 -11 17 -10 26 1 47 21 39 4 59 -54 63 l-46 3 0 -70z m83 35
c8 -19 -1 -26 -35 -26 -21 0 -28 5 -28 20 0 15 7 20 29 20 16 0 31 -6 34 -14z"/>
<path d="M800 610 c0 -5 11 -10 25 -10 22 0 24 -4 27 -55 2 -30 8 -55 13 -55
6 0 11 25 13 55 3 47 6 55 22 55 11 0 20 5 20 10 0 6 -27 10 -60 10 -33 0 -60
-4 -60 -10z"/>
<path d="M532 579 c-29 -11 -37 -45 -17 -75 13 -20 22 -24 53 -21 36 4 37 5
40 49 3 44 2 46 -26 50 -17 2 -39 1 -50 -3z m53 -37 c7 -20 -19 -47 -39 -39
-19 7 -21 53 -3 60 18 6 35 -2 42 -21z"/>
<path d="M1072 574 c-26 -18 -29 -56 -6 -78 18 -18 38 -20 63 -6 12 6 29 5 49
-2 24 -9 34 -9 46 1 25 21 19 41 -14 52 -16 6 -30 15 -30 21 0 5 13 7 30 3 35
-8 40 2 8 14 -27 10 -58 -3 -58 -25 0 -8 14 -20 31 -26 20 -7 27 -14 21 -20
-7 -7 -16 -7 -28 0 -11 6 -29 6 -51 0 -34 -9 -53 -5 -53 13 0 5 16 9 35 9 41
0 47 20 13 44 -12 9 -25 16 -28 16 -3 0 -16 -7 -28 -16z m46 -22 c2 -7 -6 -12
-17 -12 -21 0 -27 11 -14 24 9 9 26 2 31 -12z"/>
<path d="M630 535 c0 -25 3 -46 8 -46 4 -1 24 -3 45 -4 l37 -2 0 48 c0 27 -4
49 -10 49 -5 0 -10 -13 -10 -29 0 -31 -22 -57 -40 -46 -5 3 -10 22 -10 41 0
19 -4 34 -10 34 -5 0 -10 -20 -10 -45z"/>
<path d="M1431 564 c0 -11 3 -14 6 -6 3 7 2 16 -1 19 -3 4 -6 -2 -5 -13z"/>
<path d="M1421 524 c0 -11 3 -14 6 -6 3 7 2 16 -1 19 -3 4 -6 -2 -5 -13z"/>
<path d="M1406 485 c-9 -26 -7 -32 5 -12 6 10 9 21 6 23 -2 3 -7 -2 -11 -11z"/>
<path d="M731 413 c2 -25 2 -25 6 -5 5 27 29 24 25 -4 -2 -15 -1 -16 7 -4 11
17 -3 40 -25 40 -9 0 -13 -10 -13 -27z"/>
<path d="M801 413 c0 -16 3 -22 6 -16 2 7 4 15 3 19 -1 4 4 11 12 15 10 7 9 9
-4 9 -13 0 -18 -8 -17 -27z"/>
<path d="M861 430 c-1 -23 15 -45 23 -31 4 6 3 11 -3 11 -5 0 -12 8 -14 18 -3
12 -5 13 -6 2z"/>
</g>
</svg>
