<?xml version="1.0" standalone="no"?>
<!DOCTYPE svg PUBLIC "-//W3C//DTD SVG 20010904//EN"
 "http://www.w3.org/TR/2001/REC-SVG-20010904/DTD/svg10.dtd">
<svg version="1.0" xmlns="http://www.w3.org/2000/svg"
 width="1204.000000pt" height="1052.000000pt" viewBox="0 0 1204.000000 1052.000000"
 preserveAspectRatio="xMidYMid meet">

<g transform="translate(0.000000,1052.000000) scale(0.100000,-0.100000)"
fill="#000000" stroke="none">
<path d="M5885 10049 c-388 -26 -777 -104 -1270 -254 -257 -78 -388 -125 -580
-207 -442 -190 -798 -410 -1205 -748 -124 -103 -439 -409 -507 -493 -23 -29
-81 -99 -129 -157 -220 -266 -366 -496 -559 -878 -68 -137 -126 -265 -169
-377 -30 -76 -37 -94 -56 -140 -13 -31 -29 -81 -73 -220 -85 -271 -163 -651
-187 -910 -38 -417 -32 -705 21 -1115 55 -420 191 -903 364 -1294 63 -142 202
-409 291 -559 144 -242 239 -375 452 -635 91 -112 451 -479 552 -563 420 -352
803 -585 1305 -794 331 -138 655 -230 1070 -304 313 -57 874 -74 1205 -38 488
54 938 165 1378 338 209 83 231 93 404 180 347 174 608 345 913 598 191 158
411 360 492 451 92 103 323 403 323 419 0 5 4 11 8 13 10 3 143 204 185 278
89 155 267 509 267 530 0 5 9 29 19 52 11 24 34 81 51 128 18 47 48 125 67
174 76 193 161 501 197 711 60 351 59 344 64 618 5 297 -11 686 -34 847 -22
151 -62 371 -70 379 -6 6 6 -128 16 -180 11 -57 37 -385 45 -574 8 -186 -18
-623 -50 -845 -27 -189 -123 -594 -181 -768 -92 -276 -243 -622 -364 -837
-111 -197 -372 -577 -481 -700 -14 -16 -50 -57 -79 -90 -237 -269 -579 -584
-815 -749 -60 -42 -128 -90 -150 -105 -92 -66 -397 -238 -519 -294 -263 -119
-545 -224 -771 -288 -97 -27 -584 -106 -730 -119 -146 -12 -772 -17 -835 -7
l-45 8 24 -19 23 -19 -61 -6 c-104 -11 -438 27 -681 77 -206 43 -614 175 -840
272 -96 42 -416 201 -485 242 -147 86 -421 270 -535 358 -336 259 -452 372
-736 715 -137 166 -145 175 -248 327 -193 283 -424 729 -532 1027 -118 326
-166 501 -225 815 -37 200 -79 649 -79 852 0 264 37 632 88 873 47 216 64 292
72 315 5 14 20 66 35 115 69 234 161 465 141 355 -3 -19 -12 -57 -20 -85 -8
-27 -22 -81 -31 -120 -9 -38 -28 -110 -41 -160 -28 -108 -74 -311 -85 -380
-30 -186 -60 -461 -70 -638 -13 -228 -1 -568 25 -727 8 -47 22 -138 31 -203
14 -104 80 -420 105 -502 92 -302 170 -527 252 -721 75 -176 297 -563 412
-719 29 -38 76 -104 106 -145 48 -65 155 -198 238 -295 228 -268 601 -603 882
-792 205 -139 444 -274 675 -382 243 -114 639 -257 846 -306 63 -15 137 -33
164 -40 28 -8 68 -16 90 -20 68 -11 27 13 -60 36 -178 46 -575 179 -700 235
-16 7 -92 38 -169 69 -217 88 -485 226 -704 364 -101 63 -373 265 -452 336
-75 66 -242 219 -311 285 -159 152 -448 508 -611 755 -327 495 -560 1068 -693
1705 -13 63 -27 140 -30 170 -4 30 -13 100 -20 155 -57 409 -34 1009 55 1440
161 774 425 1379 858 1958 140 188 337 400 527 568 27 24 59 52 70 62 78 70
466 349 595 429 379 233 716 382 1185 523 192 58 611 136 895 167 186 20 740
16 890 -6 63 -9 179 -25 256 -36 308 -42 655 -137 999 -272 268 -106 611 -297
911 -507 19 -13 37 -22 40 -19 3 3 -50 46 -118 95 -319 230 -347 248 -521 338
-213 111 -610 263 -872 335 -44 12 -110 31 -147 41 -99 28 -563 115 -771 144
-26 3 -45 10 -43 14 9 14 208 21 311 10 239 -23 533 -74 730 -124 216 -56 621
-191 762 -255 36 -17 69 -30 72 -30 7 0 206 -104 321 -167 229 -126 398 -237
593 -387 220 -169 532 -456 652 -601 32 -38 61 -72 64 -75 4 -3 36 -39 71 -80
80 -91 149 -185 261 -350 79 -117 103 -155 206 -335 58 -100 108 -203 144
-292 17 -43 39 -96 49 -118 10 -22 28 -69 41 -105 12 -36 25 -69 29 -75 4 -5
17 -39 29 -75 13 -36 27 -69 32 -74 5 -6 9 -18 9 -27 0 -9 9 -36 20 -61 23
-54 114 -379 134 -486 9 -42 20 -93 26 -112 18 -62 60 -370 73 -539 16 -214
15 -580 -1 -746 -14 -141 -56 -422 -73 -495 -6 -25 -22 -96 -35 -158 -45 -217
-146 -539 -243 -779 -32 -82 -66 -161 -75 -178 -9 -16 -16 -33 -16 -38 0 -4
-27 -64 -61 -133 -33 -69 -58 -128 -56 -131 3 -2 12 8 20 24 126 237 161 315
249 538 156 400 274 881 308 1257 66 719 -6 1396 -216 2028 -85 255 -130 371
-214 545 -137 288 -321 583 -530 855 -68 88 -263 313 -325 375 -113 113 -364
346 -420 391 -33 26 -83 68 -111 93 -64 58 -323 232 -519 348 -138 82 -493
262 -575 292 -19 7 -44 17 -55 21 -111 46 -426 150 -565 186 -254 66 -435 98
-738 128 -164 17 -591 20 -807 5z"/>
<path d="M5166 7505 c-15 -16 -30 -197 -21 -249 5 -23 14 -36 28 -40 30 -8
2074 -5 2112 3 l30 6 3 115 c3 137 -6 165 -53 174 -19 4 -496 6 -1060 5 -828
-1 -1028 -4 -1039 -14z m399 -125 l0 -45 -116 -3 c-127 -3 -149 5 -149 52 0
42 17 47 145 44 l120 -3 0 -45z m363 38 c14 -14 16 -64 3 -72 -5 -4 -61 -8
-125 -11 -107 -5 -116 -4 -126 14 -13 26 -13 54 2 69 8 8 50 12 123 12 73 0
115 -4 123 -12z"/>
<path d="M4796 7129 c-8 -40 -8 -217 0 -246 6 -22 10 -23 125 -23 141 0 131
-14 127 170 l-3 125 -121 3 -121 3 -7 -32z"/>
<path d="M5158 7103 c-11 -13 -12 -140 -9 -702 2 -395 7 -693 12 -703 9 -17
55 -18 707 -20 1194 -5 1412 -2 1431 17 14 14 16 86 19 704 2 587 0 691 -12
703 -12 13 -169 15 -1074 16 -964 1 -1061 0 -1074 -15z m1297 -222 c3 -10 -8
-53 -26 -97 -67 -171 -109 -286 -152 -414 -50 -152 -116 -338 -141 -393 -24
-54 -27 -57 -61 -57 -23 0 -38 5 -42 15 -7 20 50 194 134 405 36 91 77 203 90
250 43 152 84 265 106 288 26 28 83 31 92 3z m-474 -262 c23 -44 -46 -99 -196
-157 -44 -16 -81 -37 -83 -45 -2 -9 29 -28 90 -56 172 -77 203 -95 206 -118 4
-27 -36 -56 -64 -47 -81 27 -336 133 -366 151 -80 49 -69 94 35 143 96 46 341
149 354 149 7 1 17 -9 24 -20z m734 -66 c83 -36 169 -73 192 -83 49 -21 63
-52 37 -81 -23 -25 -89 -64 -155 -89 -30 -12 -67 -27 -84 -35 -147 -66 -217
-81 -229 -50 -15 39 41 82 181 140 96 39 123 59 107 75 -5 5 -43 21 -83 35
-173 61 -229 106 -185 150 22 22 38 17 219 -62z"/>
<path d="M4795 6761 c-3 -5 -6 -325 -6 -710 -1 -551 1 -704 11 -716 11 -14
134 -15 1072 -13 1235 3 1090 -16 1086 143 l-3 100 -910 5 c-835 5 -913 6
-941 22 -17 10 -35 25 -40 35 -5 10 -10 265 -11 567 -2 354 -6 553 -13 560
-12 12 -237 19 -245 7z"/>
<path d="M10541 6574 c0 -11 3 -14 6 -6 3 7 2 16 -1 19 -3 4 -6 -2 -5 -13z"/>
<path d="M10561 6504 c0 -11 3 -14 6 -6 3 7 2 16 -1 19 -3 4 -6 -2 -5 -13z"/>
<path d="M10571 6466 c-1 -27 42 -164 46 -146 1 8 -8 49 -21 90 -14 41 -25 66
-25 56z"/>
<path d="M5507 4648 c-10 -7 -21 -29 -25 -48 -4 -19 -5 -258 -2 -530 l5 -495
69 -3 c49 -2 75 1 92 13 l24 16 -3 509 c-2 460 -4 512 -19 527 -22 22 -117 29
-141 11z"/>
<path d="M7572 4644 c-13 -9 -27 -27 -33 -40 -5 -14 -9 -237 -9 -505 -1 -549
-5 -524 77 -531 65 -6 112 8 121 35 4 12 5 244 2 515 l-5 494 -28 24 c-33 28
-91 32 -125 8z"/>
<path d="M2902 4604 l-22 -15 0 -492 c0 -271 4 -498 9 -506 19 -30 162 -30
183 0 5 8 7 79 5 167 -2 100 0 158 7 167 8 11 37 16 106 19 l95 3 35 -37 c19
-20 67 -90 107 -156 79 -131 100 -155 155 -179 44 -18 139 -20 156 -3 23 23
12 45 -84 174 -145 195 -145 196 -69 259 54 44 128 145 145 199 17 52 8 134
-19 186 -39 75 -109 155 -154 178 -67 33 -124 40 -388 46 -210 4 -249 3 -267
-10z m484 -180 c23 -3 61 -18 86 -33 37 -23 47 -37 58 -76 19 -67 0 -119 -57
-159 -43 -30 -44 -30 -212 -34 -158 -4 -170 -3 -178 14 -13 24 -15 248 -3 279
9 23 10 23 137 19 70 -3 147 -7 169 -10z"/>
<path d="M5982 4604 c-19 -13 -22 -24 -22 -85 0 -65 2 -70 26 -79 14 -6 95
-10 180 -10 l154 0 0 -413 c0 -388 1 -415 18 -430 22 -20 102 -23 151 -6 l32
11 -1 415 c-1 228 1 418 5 421 3 3 79 5 169 3 196 -3 192 -5 179 101 -7 65
-10 73 -33 79 -14 4 -207 7 -430 8 -352 1 -408 -1 -428 -15z"/>
<path d="M7003 4335 c-61 -17 -124 -47 -171 -83 -38 -29 -98 -117 -117 -172
-50 -143 -10 -297 109 -415 75 -75 162 -110 266 -108 72 2 184 33 245 69 62
36 128 108 121 131 -9 27 -68 53 -120 53 -36 0 -52 -7 -85 -34 -23 -19 -57
-40 -77 -46 -77 -26 -207 7 -245 62 -25 35 -31 64 -17 76 8 6 121 14 288 19
l275 8 0 80 c-1 102 -16 152 -64 213 -93 117 -275 183 -408 147z m188 -184
c59 -38 102 -85 97 -108 -3 -17 -17 -18 -179 -21 -196 -3 -207 0 -194 58 12
55 90 98 181 99 39 1 60 -5 95 -28z"/>
<path d="M8104 4340 c-92 -19 -216 -106 -270 -191 -94 -149 -59 -376 75 -491
56 -48 141 -88 212 -99 116 -19 269 32 362 120 30 28 59 51 65 51 7 0 39 -21
71 -47 121 -98 238 -139 347 -123 122 17 207 65 256 145 23 38 24 115 2 161
-22 47 -94 107 -151 128 -27 10 -77 28 -113 41 -146 52 -161 59 -171 76 -12
24 6 64 38 78 42 19 82 12 170 -29 98 -46 147 -51 187 -19 14 11 26 26 26 33
0 39 -106 121 -197 153 -26 9 -80 17 -118 17 -63 1 -79 -3 -147 -37 -113 -57
-149 -91 -155 -150 -15 -134 83 -223 314 -281 119 -30 145 -47 141 -88 -2 -25
-12 -36 -55 -60 l-52 -30 -55 16 c-36 11 -78 35 -123 71 -37 30 -77 55 -89 55
-11 0 -46 -14 -77 -31 l-57 -31 -64 22 c-73 24 -107 20 -131 -16 -8 -13 -34
-33 -57 -45 -36 -18 -53 -21 -115 -16 -109 8 -173 54 -173 124 l0 33 198 1
c221 2 340 6 359 13 28 11 8 159 -33 244 -49 101 -146 171 -273 198 -73 15
-87 16 -147 4z m190 -203 c30 -20 63 -48 72 -63 16 -23 16 -27 1 -41 -14 -14
-41 -16 -184 -14 -92 1 -171 5 -175 7 -15 10 -8 61 12 87 34 43 97 69 162 64
45 -2 68 -11 112 -40z"/>
<path d="M4030 4331 c-115 -24 -200 -95 -260 -216 -32 -65 -35 -77 -35 -165 0
-88 3 -101 34 -165 42 -85 108 -158 176 -193 45 -24 61 -27 156 -27 105 0 106
0 162 38 31 20 61 37 67 37 5 0 16 -13 25 -30 8 -16 27 -33 40 -36 31 -8 146
12 155 27 4 6 5 160 3 342 -4 251 -8 337 -18 353 -10 16 -28 23 -70 28 -66 7
-92 -4 -107 -45 -13 -37 -32 -37 -76 2 -20 17 -50 38 -68 45 -35 15 -124 17
-184 5z m202 -175 c101 -48 142 -138 120 -259 -14 -75 -52 -133 -106 -160 -36
-19 -46 -20 -123 -10 -100 12 -128 29 -162 99 -19 39 -25 66 -25 129 -1 77 1
83 34 130 65 90 165 117 262 71z"/>
<path d="M4685 4332 c-44 -10 -45 -15 -45 -231 0 -228 11 -325 41 -388 43 -89
125 -142 235 -151 86 -6 126 3 179 43 55 42 70 43 89 6 17 -33 40 -41 113 -41
87 0 83 -18 83 376 0 404 5 384 -102 384 -35 0 -70 -5 -78 -10 -12 -8 -16 -49
-20 -232 -5 -202 -7 -226 -26 -258 -23 -41 -118 -110 -148 -110 -40 1 -130 54
-146 85 -10 21 -17 91 -23 235 -10 237 -14 261 -47 276 -32 15 -80 22 -105 16z"/>
<path d="M5472 3240 c-35 -15 -42 -50 -42 -204 0 -161 4 -172 65 -186 156 -37
304 86 275 227 -12 55 -58 122 -100 143 -44 23 -164 35 -198 20z m152 -71 c33
-26 66 -89 66 -126 0 -48 -29 -107 -65 -131 -41 -29 -75 -25 -92 8 -17 33 -18
241 -1 258 19 19 62 14 92 -9z"/>
<path d="M5995 3231 l-60 -6 4 -160 c2 -122 7 -164 18 -176 16 -19 86 -39 134
-39 46 0 99 43 99 81 0 35 -4 36 -42 4 -36 -30 -87 -33 -111 -7 -21 23 -22 71
-1 100 14 21 17 21 45 6 28 -14 33 -14 55 1 25 16 29 31 15 54 -8 13 -15 12
-52 -2 -23 -9 -45 -14 -50 -11 -15 9 -22 75 -10 100 15 33 43 30 86 -8 40 -34
55 -28 55 22 0 50 -26 56 -185 41z"/>
<path d="M6355 3230 c-5 -8 56 -145 128 -288 35 -67 62 -86 84 -56 7 10 13 25
13 35 0 9 7 22 15 29 29 24 78 149 91 229 5 32 3 45 -7 52 -17 11 -59 12 -60
2 0 -5 -1 -28 -3 -53 -3 -50 -40 -178 -56 -194 -7 -7 -15 -6 -24 4 -17 18 -54
128 -62 185 -4 22 -13 46 -22 53 -19 14 -88 16 -97 2z"/>
<path d="M10350 2921 c-6 -12 -7 -21 -1 -21 10 0 24 30 17 37 -2 3 -9 -5 -16
-16z"/>
</g>
</svg>
